Coordinates
version=1
nRows=29
nColumns=24
inDegrees=yes

Units are S.I. units (second, meters, Newtons, ...)
Angles are in degrees.

endheader
time	pelvis_tilt	pelvis_list	pelvis_rotation	pelvis_tx	pelvis_ty	pelvis_tz	hip_flexion_r	hip_adduction_r	hip_rotation_r	knee_angle_r	ankle_angle_r	subtalar_angle_r	mtp_angle_r	hip_flexion_l	hip_adduction_l	hip_rotation_l	knee_angle_l	ankle_angle_l	subtalar_angle_l	mtp_angle_l	lumbar_extension	lumbar_bending	lumbar_rotation
      4.77000000	     -3.69695721	     -9.18866850	    -12.90309502	      1.15224095	      0.68549509	     -0.41566992	    -13.11111846	     13.71934521	     18.24956340	    -14.16798983	     20.38586499	     -2.12305525	      0.00000000	     19.33744119	    -10.34515913	      7.66670384	      9.59370875	     -0.30954704	    -20.74549432	      0.00000000	    -17.49398971	      8.68553459	     10.24480301
      4.78000000	     -3.53740206	     -8.80704296	    -12.95477322	      1.16535557	      0.68539317	     -0.41582709	    -13.02303044	     13.07191326	     16.67175136	    -16.37439757	     20.17773616	      0.03603250	      0.00000000	     19.25904835	     -9.68873170	      8.34863516	      8.42300963	     -1.03102950	    -22.00931037	      0.00000000	    -17.24461170	      8.18343874	     10.08165148
      4.79000000	     -3.29132993	     -8.19637849	    -12.95666053	      1.17869156	      0.68561113	     -0.41615283	    -12.76683289	     12.14055798	     14.90841267	    -18.87849265	     19.62540340	      2.12510180	      0.00000000	     19.26279978	     -8.68481858	      9.14587309	      6.68928395	     -2.11035780	    -23.50670920	      0.00000000	    -16.99024329	      7.42203159	      9.82118499
      4.80000000	     -2.98530319	     -7.41199434	    -12.87700793	      1.19217994	      0.68605908	     -0.41668847	    -12.32317805	     10.98823901	     13.01267262	    -21.66803249	     18.63608455	      4.05527819	      0.00000000	     19.36981889	     -7.38385317	     10.00198092	      4.51367206	     -3.44942164	    -25.03819259	      0.00000000	    -16.73612324	      6.48564517	      9.45206729
      4.81000000	     -2.59463167	     -6.47012343	    -12.71434137	      1.20575871	      0.68674080	     -0.41738800	    -11.73893680	      9.62869121	     11.12991970	    -24.70693980	     17.12200296	      5.73922104	      0.00000000	     19.51111930	     -5.80617247	     10.73112371	      2.05128430	     -4.84402687	    -26.27235346	      0.00000000	    -16.53150412	      5.35949456	      8.99448741
      4.82000000	     -2.08864545	     -5.37040126	    -12.50479509	      1.21945062	      0.68761813	     -0.41814518	    -11.08464931	      8.06077516	      9.38793310	    -27.93538097	     15.08724862	      7.06716625	      0.00000000	     19.61111846	     -3.97198323	     11.15596091	     -0.58468774	     -5.96128112	    -27.06618401	      0.00000000	    -16.40470048	      4.02274890	      8.42968814
      4.83000000	     -1.56891383	     -4.27253289	    -12.25482810	      1.23295766	      0.68858959	     -0.41897829	    -10.21606372	      6.47557364	      7.74410692	    -31.40979190	     12.43125570	      8.11238693	      0.00000000	     19.68656468	     -2.11605504	     11.53130492	     -3.20090750	     -6.90881260	    -27.60042540	      0.00000000	    -16.36846950	      2.68836476	      7.89294993
      4.84000000	     -1.07582750	     -3.18424716	    -11.96670398	      1.24627322	      0.68956184	     -0.41984425	     -9.12997908	      4.90986700	      6.31117404	    -35.03511775	      9.20687042	      8.84382354	      0.00000000	     19.74540626	     -0.26438013	     11.84224425	     -5.72928306	     -7.53125780	    -27.91172750	      0.00000000	    -16.36246510	      1.37664601	      7.39359787
      4.85000000	     -0.61368833	     -2.09160819	    -11.70730621	      1.25935072	      0.69048306	     -0.42056779	     -7.82525972	      3.38345460	      5.21564454	    -38.76746823	      5.52721711	      9.16533513	      0.00000000	     19.73428023	      1.55189134	     11.96826395	     -8.07287054	     -7.65180262	    -27.97050385	      0.00000000	    -16.38065787	      0.03005405	      6.87099473
      4.86000000	     -0.05996047	     -1.04318068	    -11.53963708	      1.27214721	      0.69152855	     -0.42104420	     -6.46392776	      1.94105069	      4.51612277	    -42.50051400	      1.47530357	      9.05868084	      0.00000000	     19.41600328	      3.26662704	     11.94855599	    -10.05643764	     -7.42457040	    -28.03839626	      0.00000000	    -16.59446568	     -1.33623110	      6.42984601
      4.87000000	      0.00022288	     -0.08772505	    -11.38769678	      1.28430457	      0.69190232	     -0.42138034	     -4.33417392	      0.81816470	      4.16295555	    -46.35046386	     -2.60083561	      8.66316073	      0.00000000	     19.60719173	      4.73959023	     11.71107711	    -11.98020057	     -6.36842412	    -27.46735771	      0.00000000	    -16.36987420	     -2.51125570	      6.03920107
      4.88000000	      0.32436417	      0.87048913	    -11.29893261	      1.29624853	      0.69258714	     -0.42154172	     -2.39328332	     -0.28980262	      4.10177015	    -50.03104631	     -6.42446796	      8.25675988	      0.00000000	     19.19203958	      6.19736782	     11.54189670	    -13.31547523	     -5.44760136	    -27.37574051	      0.00000000	    -16.51564100	     -3.78360680	      5.69943971
      4.89000000	      0.55071188	      1.78948335	    -11.23309009	      1.30785092	      0.69312836	     -0.42156015	     -0.24368746	     -1.22238973	      4.27603982	    -53.57824865	     -9.65249235	      7.81334121	      0.00000000	     18.65390329	      7.54163398	     11.43415006	    -14.23172758	     -4.39626660	    -27.38135071	      0.00000000	    -16.62847670	     -5.00732472	      5.33564667
      4.90000000	      0.70380387	      2.67970504	    -11.18598508	      1.31914385	      0.69357180	     -0.42144574	      2.06110212	     -1.98661112	      4.66603644	    -56.96694893	    -11.94733582	      7.47515584	      0.00000000	     17.95049180	      8.78698509	     11.43526185	    -14.69947124	     -3.31084147	    -27.48047298	      0.00000000	    -16.68726049	     -6.19407696	      4.94852321
      4.91000000	      0.81128998	      3.50953513	    -11.12518811	      1.33027263	      0.69404010	     -0.42124757	      4.40676595	     -2.57165664	      5.18290864	    -60.09094696	    -13.11813682	      7.29918713	      0.00000000	     17.04289823	      9.91994749	     11.60159726	    -14.73643950	     -2.31166616	    -27.70070954	      0.00000000	    -16.71584131	     -7.30121541	      4.52378467
      4.92000000	      1.08414830	      4.18279522	    -10.90165501	      1.34129222	      0.69485135	     -0.42114951	      6.45242235	     -2.97769168	      5.53467478	    -62.82223000	    -13.14662168	      7.06899297	      0.00000000	     15.70536817	     10.92671557	     12.09018346	    -14.40896590	     -1.36589300	    -27.92832015	      0.00000000	    -17.02203036	     -8.21715375	      3.91826449
      4.93000000	      1.17984422	      4.78544469	    -10.82316360	      1.35197165	      0.69558695	     -0.42091024	      8.71427765	     -3.19372596	      6.10223350	    -65.30681088	    -11.92777660	      6.98334482	      0.00000000	     14.42217489	     11.74083230	     12.48014883	    -13.80552494	     -0.77462834	    -28.35130328	      0.00000000	    -17.17205162	     -9.01553953	      3.40877676
      4.94000000	      1.24261680	      5.18780158	    -10.65745540	      1.36271418	      0.69651959	     -0.42069704	     10.83928839	     -3.19011872	      6.50249462	    -67.30098606	     -9.88893708	      6.70663075	      0.00000000	     12.94379839	     12.31429207	     13.22215969	    -12.92936922	     -0.27225968	    -28.82624753	      0.00000000	    -17.26831836	     -9.54940956	      2.86880402
      4.95000000	      1.31456985	      5.39191504	    -10.40297400	      1.37335271	      0.69767797	     -0.42060160	     12.79354748	     -3.02946027	      6.67350900	    -68.78876057	     -7.21227620	      6.12127596	      0.00000000	     11.34681490	     12.66162226	     14.07539008	    -11.94237171	      0.07166055	    -29.30752748	      0.00000000	    -17.43467625	     -9.80824877	      2.31163282
      4.96000000	      1.35407902	      5.41671888	    -10.11023072	      1.38369344	      0.69897891	     -0.42051265	     14.67456485	     -2.71203802	      6.67561374	    -69.79073426	     -4.28505947	      5.13487067	      0.00000000	      9.77596209	     12.77471841	     14.96744665	    -10.98904257	      0.43220716	    -29.52425610	      0.00000000	    -17.67792748	     -9.86270131	      1.82805513
      4.97000000	      1.31687825	      5.19910648	     -9.66768238	      1.39418621	      0.70043605	     -0.42063887	     16.39454357	     -2.24070508	      6.38476342	    -70.17400713	     -1.32150547	      3.89697891	      0.00000000	      8.13128056	     12.60609878	     16.15489028	     -9.87653893	      0.37523055	    -30.20009067	      0.00000000	    -17.81487388	     -9.52903579	      1.17714339
      4.98000000	      1.22856673	      4.86639929	     -9.33319734	      1.40441899	      0.70182565	     -0.42063748	     18.13022475	     -1.68890784	      6.01941856	    -70.12987570	      1.31925573	      2.18185492	      0.00000000	      6.59772390	     12.25319454	     17.09751395	     -8.83060576	      0.55585841	    -30.58360229	      0.00000000	    -17.94053111	     -9.07904881	      0.79215529
      4.99000000	      1.14415292	      4.49231948	     -8.91243049	      1.41446869	      0.70319294	     -0.42068024	     19.75263284	     -1.18331529	      5.48997728	    -69.63458841	      3.72790403	      0.32481159	      0.00000000	      5.07689999	     11.83072834	     18.21466533	     -7.79645513	      0.43355224	    -31.18542110	      0.00000000	    -18.14321555	     -8.59810466	      0.26446883
      5.00000000	      0.87668349	      4.00342916	     -8.57298037	      1.42443163	      0.70427247	     -0.42054307	     21.46488053	     -0.53210901	      4.97145273	    -68.70915283	      5.74794510	     -1.61662949	      0.00000000	      3.82871162	     11.22734795	     18.91629739	     -6.86676949	      0.74861593	    -31.29893556	      0.00000000	    -18.11594094	     -7.98582498	      0.07750469
      5.01000000	      0.63771813	      3.52237877	     -8.03053016	      1.43430741	      0.70526621	     -0.42074595	     23.01755554	     -0.08177355	      4.11503441	    -67.34723625	      7.29365763	     -3.81733154	      0.00000000	      2.61022824	     10.65993653	     19.81640520	     -6.02048579	      0.80396164	    -31.63171382	      0.00000000	    -18.19279339	     -7.27322272	     -0.45691835
      5.02000000	      0.40312643	      3.05446932	     -7.55933862	      1.44408358	      0.70601109	     -0.42069104	     24.46990419	      0.37472623	      3.35015442	    -65.63980194	      8.56923987	     -5.82952393	      0.00000000	      1.41752536	     10.06310439	     20.74347580	     -5.18033594	      0.88378254	    -32.06847468	      0.00000000	    -18.28603461	     -6.66743460	     -0.87560543
      5.03000000	      0.15568116	      2.61438891	     -7.10416996	      1.45383391	      0.70648813	     -0.42056374	     25.82228286	      0.77200644	      2.57685933	    -63.58329394	      9.57545686	     -7.63583950	      0.00000000	      0.30838318	      9.49128595	     21.56064378	     -4.42098796	      1.01743994	    -32.51678793	      0.00000000	    -18.36437826	     -6.11804550	     -1.23066073
      5.04000000	     -0.11141926	      2.24832999	     -6.67050451	      1.46356016	      0.70667713	     -0.42040177	     27.07958326	      1.08371530	      1.85264226	    -61.18981940	     10.37381826	     -9.18466758	      0.00000000	     -0.68562026	      9.00669919	     22.25417075	     -3.78855744	      1.23622657	    -32.86266159	      0.00000000	    -18.41501133	     -5.63974816	     -1.52976029
      5.05000000	     -0.38418060	      1.96719901	     -6.25030759	      1.47329738	      0.70657379	     -0.42020160	     28.21774337	      1.29993267	      1.17772616	    -58.47510447	     11.02101353	    -10.39023821	      0.00000000	     -1.59667361	      8.62203319	     22.88690312	     -3.26439607	      1.55273460	    -33.14569632	      0.00000000	    -18.45118177	     -5.26502200	     -1.76523399
